<?xml version="1.0" encoding="UTF-8"?> <!-- Generator: Adobe Illustrator 13.0.0, SVG Export Plug-In . SVG Version: 6.00 Build 14948) --> <svg xmlns="http://www.w3.org/2000/svg" xmlns:xlink="http://www.w3.org/1999/xlink" version="1.1" id="Layer_1" x="0px" y="0px" width="461.309px" height="164.665px" viewBox="0 0 461.309 164.665" xml:space="preserve"> <g> <path fill="#FFFFFF" d="M140.579,0l-29.266,31.646H81.408v87.664H46.177V31.646H0L25.814,0H140.579z"></path> <path fill="#FFFFFF" d="M305.097,0l0.07,93.022l-25.336,26.288h-7.307V43.721l-56.792,53.574l-58.025-53.574v75.589h-32.569 l0.394-87.79L154.689,0h4.241l56.144,57.653L271.217,0H305.097z"></path> <path fill="#FFFFFF" d="M435.727,0l-22.32,26.91h-54.238c-2.79-0.174-5.172,0.725-7.139,2.699c-1.919,1.746-2.87,3.891-2.87,6.448 c0.054,2.556,1.034,4.729,2.956,6.529c1.917,1.8,4.263,2.7,7.053,2.7c8.014,0,7.823-0.027,24.541-0.089 c16.721-0.175,29.06-0.175,37.009,0c11.321-0.057,20.905,3.573,28.743,10.886c8.07,7.199,12.015,15.939,11.842,26.215 c0.052,10.277-3.92,19.017-11.93,26.214c-7.783,7.197-17.334,10.798-28.655,10.798H291.361l24.421-26.22h101.89 c3.253-0.171,5.982-1.181,8.186-3.045c2.211-2.089,3.31-4.556,3.31-7.399c0-2.958-1.128-5.458-3.393-7.488 c-2.263-2.092-4.964-3.136-8.103-3.136h-64.34c-10.913-0.055-20.202-3.573-27.864-10.538c-7.661-7.085-11.495-15.561-11.495-25.428 c0-9.987,3.834-18.379,11.495-25.171C333.067,3.98,342.364,0.352,353.332,0H435.727z"></path> </g> <g> <path fill="#E4E5E6" d="M186.391,163.077c-1.625,0.604-4.8,1.437-8.164,1.437c-4.309,0-7.597-1.096-10.016-3.401 c-2.268-2.154-3.553-5.519-3.553-9.374c0.038-8.088,5.745-13.229,14.173-13.229c3.137,0,5.594,0.643,6.766,1.21l-1.021,3.741 c-1.398-0.643-3.1-1.096-5.783-1.096c-5.443,0-9.26,3.213-9.26,9.146c0,5.783,3.553,9.223,8.844,9.223 c1.701,0,2.91-0.228,3.515-0.492v-6.387h-4.498v-3.667h8.995V163.077z"></path> <path fill="#E4E5E6" d="M194.935,139.152c1.776-0.34,4.347-0.566,7.03-0.566c3.667,0,6.123,0.604,7.862,2.041 c1.398,1.171,2.192,2.947,2.192,5.14c0,3.288-2.229,5.519-4.648,6.35v0.113c1.852,0.681,2.948,2.457,3.553,4.914 c0.832,3.175,1.512,6.123,2.003,7.105h-4.762c-0.378-0.756-1.021-2.835-1.701-6.01c-0.756-3.326-1.928-4.384-4.573-4.46h-2.344 v10.47h-4.611V139.152z M199.545,150.378h2.759c3.137,0,5.065-1.663,5.065-4.195c0-2.759-1.928-4.082-4.952-4.082 c-1.474,0-2.419,0.113-2.873,0.227V150.378z"></path> <path fill="#E4E5E6" d="M242.824,151.247c0,8.542-5.178,13.418-12.17,13.418c-7.219,0-11.754-5.519-11.754-12.964 c0-7.862,4.951-13.38,12.132-13.38C238.44,138.321,242.824,143.952,242.824,151.247z M223.813,151.587 c0,5.216,2.608,9.336,7.068,9.336c4.498,0,7.03-4.195,7.03-9.524c0-4.8-2.382-9.336-7.03-9.336 C226.27,142.063,223.813,146.334,223.813,151.587z"></path> <path fill="#E4E5E6" d="M255.223,138.774v14.854c0,4.989,2.079,7.295,5.216,7.295c3.364,0,5.367-2.306,5.367-7.295v-14.854h4.649 v14.552c0,7.861-4.044,11.339-10.167,11.339c-5.896,0-9.714-3.288-9.714-11.301v-14.59H255.223z"></path> <path fill="#E4E5E6" d="M279.566,139.114c1.701-0.302,4.007-0.528,7.105-0.528c3.402,0,5.858,0.718,7.484,2.078 c1.512,1.247,2.494,3.251,2.494,5.632c0,2.419-0.756,4.385-2.154,5.745c-1.89,1.852-4.763,2.759-8.051,2.759 c-0.869,0-1.625-0.037-2.268-0.188v9.638h-4.611V139.114z M284.177,150.944c0.604,0.189,1.323,0.228,2.268,0.228 c3.478,0,5.594-1.739,5.594-4.687c0-2.835-1.965-4.31-5.178-4.31c-1.285,0-2.192,0.113-2.684,0.228V150.944z"></path> </g> </svg> 